HIERARCHY
ROOT newVegas:Hips
{
	OFFSET 0.000000 96.479958 0.000000
	CHANNELS 6 Xposition Yposition Zposition Xrotation Yrotation Zrotation
	JOINT newVegas:Pelvis
	{
		OFFSET 0.000000 0.000000 0.000000
		CHANNELS 3 Xrotation Yrotation Zrotation
		JOINT newVegas:LeftUpLeg
		{
			OFFSET 18.735201 -5.666702 -4.541200
			CHANNELS 3 Xrotation Yrotation Zrotation
			JOINT newVegas:LeftLeg
			{
				OFFSET -0.021200 -31.938179 0.493100
				CHANNELS 3 Xrotation Yrotation Zrotation
				JOINT newVegas:LeftFoot
				{
					OFFSET 0.021200 -31.938179 -4.336299
					CHANNELS 3 Xrotation Yrotation Zrotation
					JOINT newVegas:LeftToeBase
					{
						OFFSET 0.943001 -26.722000 15.023500
						CHANNELS 3 Xrotation Yrotation Zrotation
						End Site
						{
							OFFSET 0.000000 30.670183 0.000000
						}
					}
				}
				JOINT newVegas:Left_PantLeg
				{
					OFFSET 0.663870 -9.044666 -1.108900
					CHANNELS 3 Xrotation Yrotation Zrotation
					End Site
					{
						OFFSET 1.415995 20.635357 0.000000
					}
				}
			}
		}
		JOINT newVegas:RightUpLeg
		{
			OFFSET -18.735201 -5.666702 -4.541200
			CHANNELS 3 Xrotation Yrotation Zrotation
			JOINT newVegas:RightLeg
			{
				OFFSET 0.018946 -31.938133 0.493100
				CHANNELS 3 Xrotation Yrotation Zrotation
				JOINT newVegas:RightFoot
				{
					OFFSET -0.018946 -31.938126 -4.336299
					CHANNELS 3 Xrotation Yrotation Zrotation
					JOINT newVegas:RightToeBase
					{
						OFFSET -0.943001 -26.722004 15.023500
						CHANNELS 3 Xrotation Yrotation Zrotation
						End Site
						{
							OFFSET 0.000000 30.670187 0.000000
						}
					}
				}
				JOINT newVegas:Right_PantLeg
				{
					OFFSET -0.661674 -9.044716 -1.108900
					CHANNELS 3 Xrotation Yrotation Zrotation
					End Site
					{
						OFFSET -1.415958 20.635269 0.000000
					}
				}
			}
		}
	}
	JOINT newVegas:Spine
	{
		OFFSET 0.000000 10.199997 -0.299500
		CHANNELS 3 Xrotation Yrotation Zrotation
		JOINT newVegas:Spine1
		{
			OFFSET 0.000000 11.900002 -1.516600
			CHANNELS 3 Xrotation Yrotation Zrotation
			JOINT newVegas:Spine2
			{
				OFFSET 0.000000 13.600006 -2.842500
				CHANNELS 3 Xrotation Yrotation Zrotation
				JOINT newVegas:Neck
				{
					OFFSET 0.000000 9.624100 -2.890100
					CHANNELS 3 Xrotation Yrotation Zrotation
					JOINT newVegas:Head
					{
						OFFSET 0.000000 14.068802 -1.351900
						CHANNELS 3 Xrotation Yrotation Zrotation
						JOINT newVegas:Hair_Back
						{
							OFFSET 0.000000 3.231903 -17.524799
							CHANNELS 3 Xrotation Yrotation Zrotation
							End Site
							{
								OFFSET 0.000000 19.849884 0.000000
							}
						}
						JOINT newVegas:Hair_Front
						{
							OFFSET 0.000000 31.260406 4.573800
							CHANNELS 3 Xrotation Yrotation Zrotation
							JOINT newVegas:Hair_Front1
							{
								OFFSET 0.000000 2.284103 11.993300
								CHANNELS 3 Xrotation Yrotation Zrotation
								JOINT newVegas:Hair_Front2
								{
									OFFSET 0.000000 2.284103 11.993300
									CHANNELS 3 Xrotation Yrotation Zrotation
									End Site
									{
										OFFSET 0.000000 12.208862 0.000000
									}
								}
							}
						}
						JOINT newVegas:Jowel
						{
							OFFSET 0.000000 -7.458206 6.864100
							CHANNELS 3 Xrotation Yrotation Zrotation
							End Site
							{
								OFFSET 0.000000 19.849884 0.000000
							}
						}
					}
				}
				JOINT newVegas:LeftShoulder
				{
					OFFSET 15.263000 10.923401 -0.547700
					CHANNELS 3 Xrotation Yrotation Zrotation
					JOINT newVegas:LeftArm
					{
						OFFSET 25.438599 -2.830597 -13.032500
						CHANNELS 3 Xrotation Yrotation Zrotation
						JOINT newVegas:LeftForeArm
						{
							OFFSET 29.960503 0.000000 0.000000
							CHANNELS 3 Xrotation Yrotation Zrotation
							JOINT newVegas:LeftHand
							{
								OFFSET 27.849251 0.000000 0.000000
								CHANNELS 3 Xrotation Yrotation Zrotation
								JOINT newVegas:LeftHandThumb1
								{
									OFFSET 4.487587 -3.305161 6.305391
									CHANNELS 3 Xrotation Yrotation Zrotation
									JOINT newVegas:LeftHandThumb2
									{
										OFFSET 5.480453 -3.164139 3.164143
										CHANNELS 3 Xrotation Yrotation Zrotation
										JOINT newVegas:LeftHandThumb3
										{
											OFFSET 5.159721 -2.978973 2.978967
											CHANNELS 3 Xrotation Yrotation Zrotation
											End Site
											{
												OFFSET 2.494507 5.926697 1.738678
											}
										}
									}
								}
								JOINT newVegas:LeftHandIndex1
								{
									OFFSET 18.578728 -0.527832 5.208049
									CHANNELS 3 Xrotation Yrotation Zrotation
									JOINT newVegas:LeftHandIndex2
									{
										OFFSET 3.192009 0.000000 0.000000
										CHANNELS 3 Xrotation Yrotation Zrotation
										JOINT newVegas:LeftHandIndex3
										{
											OFFSET 3.835129 0.000000 0.000000
											CHANNELS 3 Xrotation Yrotation Zrotation
											End Site
											{
												OFFSET -0.034599 3.816971 0.371180
											}
										}
									}
								}
								JOINT newVegas:LeftHandMiddle1
								{
									OFFSET 18.476105 0.000000 0.000000
									CHANNELS 3 Xrotation Yrotation Zrotation
									JOINT newVegas:LeftHandMiddle2
									{
										OFFSET 3.324875 0.000000 0.000000
										CHANNELS 3 Xrotation Yrotation Zrotation
										JOINT newVegas:LeftHandMiddle3
										{
											OFFSET 4.596550 0.000000 0.000000
											CHANNELS 3 Xrotation Yrotation Zrotation
											End Site
											{
												OFFSET 0.057701 4.578827 0.399218
											}
										}
									}
								}
								JOINT newVegas:LeftHandRing1
								{
									OFFSET 17.732719 0.121887 -4.201567
									CHANNELS 3 Xrotation Yrotation Zrotation
									JOINT newVegas:LeftHandRing2
									{
										OFFSET 2.733170 0.000000 0.000000
										CHANNELS 3 Xrotation Yrotation Zrotation
										JOINT newVegas:LeftHandRing3
										{
											OFFSET 3.178268 0.000000 0.000000
											CHANNELS 3 Xrotation Yrotation Zrotation
											End Site
											{
												OFFSET 0.119102 3.170624 0.185394
											}
										}
									}
								}
								JOINT newVegas:LeftHandPinky1
								{
									OFFSET 15.989624 -0.606689 -7.535461
									CHANNELS 3 Xrotation Yrotation Zrotation
									JOINT newVegas:LeftHandPinky2
									{
										OFFSET 2.538986 0.000000 0.000000
										CHANNELS 3 Xrotation Yrotation Zrotation
										JOINT newVegas:LeftHandPinky3
										{
											OFFSET 2.593102 0.000000 0.000000
											CHANNELS 3 Xrotation Yrotation Zrotation
											End Site
											{
												OFFSET -0.150902 2.584198 0.152708
											}
										}
									}
								}
							}
							JOINT newVegas:Left_Sleeve
							{
								OFFSET 0.267448 -0.649796 0.577675
								CHANNELS 3 Xrotation Yrotation Zrotation
								End Site
								{
									OFFSET 0.000000 15.991241 0.000000
								}
							}
							JOINT newVegas:Left_CapeC
							{
								OFFSET 15.715958 -8.608795 -6.935905
								CHANNELS 3 Xrotation Yrotation Zrotation
								JOINT newVegas:Left_CapeC1
								{
									OFFSET 0.000000 -8.688499 0.000000
									CHANNELS 3 Xrotation Yrotation Zrotation
									End Site
									{
										OFFSET 0.000000 8.688499 0.000000
									}
								}
							}
						}
						JOINT newVegas:Left_CapeB
						{
							OFFSET 26.118385 -8.608795 -7.079235
							CHANNELS 3 Xrotation Yrotation Zrotation
							JOINT newVegas:Left_CapeB1
							{
								OFFSET 0.000000 -8.688499 0.000000
								CHANNELS 3 Xrotation Yrotation Zrotation
								End Site
								{
									OFFSET 0.000000 8.688499 0.000000
								}
							}
						}
						JOINT newVegas:Left_CapeA
						{
							OFFSET 5.115639 -8.608795 -10.395809
							CHANNELS 3 Xrotation Yrotation Zrotation
							JOINT newVegas:Left_CapeA1
							{
								OFFSET 0.000000 -8.688499 0.000000
								CHANNELS 3 Xrotation Yrotation Zrotation
								End Site
								{
									OFFSET 0.000000 8.688499 0.000000
								}
							}
						}
					}
				}
				JOINT newVegas:RightShoulder
				{
					OFFSET -15.263000 10.923401 -0.547700
					CHANNELS 3 Xrotation Yrotation Zrotation
					JOINT newVegas:RightArm
					{
						OFFSET -25.438599 -2.830597 -13.032500
						CHANNELS 3 Xrotation Yrotation Zrotation
						JOINT newVegas:RightForeArm
						{
							OFFSET -29.960503 0.000000 0.000000
							CHANNELS 3 Xrotation Yrotation Zrotation
							JOINT newVegas:RightHand
							{
								OFFSET -27.849251 0.000000 0.000000
								CHANNELS 3 Xrotation Yrotation Zrotation
								JOINT newVegas:RightHandThumb1
								{
									OFFSET -4.487587 -3.305161 6.305391
									CHANNELS 3 Xrotation Yrotation Zrotation
									JOINT newVegas:RightHandThumb2
									{
										OFFSET -5.480453 -3.164139 3.164143
										CHANNELS 3 Xrotation Yrotation Zrotation
										JOINT newVegas:RightHandThumb3
										{
											OFFSET -5.159721 -2.978973 2.978967
											CHANNELS 3 Xrotation Yrotation Zrotation
											End Site
											{
												OFFSET -2.494507 5.926697 1.738678
											}
										}
									}
								}
								JOINT newVegas:RightHandIndex1
								{
									OFFSET -18.578728 -0.527832 5.208049
									CHANNELS 3 Xrotation Yrotation Zrotation
									JOINT newVegas:RightHandIndex2
									{
										OFFSET -3.192009 0.000000 0.000000
										CHANNELS 3 Xrotation Yrotation Zrotation
										JOINT newVegas:RightHandIndex3
										{
											OFFSET -3.835129 0.000000 0.000000
											CHANNELS 3 Xrotation Yrotation Zrotation
											End Site
											{
												OFFSET 0.034599 3.816971 0.371180
											}
										}
									}
								}
								JOINT newVegas:RightHandMiddle1
								{
									OFFSET -18.476105 0.000000 0.000000
									CHANNELS 3 Xrotation Yrotation Zrotation
									JOINT newVegas:RightHandMiddle2
									{
										OFFSET -3.324875 0.000000 0.000000
										CHANNELS 3 Xrotation Yrotation Zrotation
										JOINT newVegas:RightHandMiddle3
										{
											OFFSET -4.596550 0.000000 0.000000
											CHANNELS 3 Xrotation Yrotation Zrotation
											End Site
											{
												OFFSET -0.057701 4.578827 0.399218
											}
										}
									}
								}
								JOINT newVegas:RightHandRing1
								{
									OFFSET -17.732719 0.121887 -4.201567
									CHANNELS 3 Xrotation Yrotation Zrotation
									JOINT newVegas:RightHandRing2
									{
										OFFSET -2.733170 0.000000 0.000000
										CHANNELS 3 Xrotation Yrotation Zrotation
										JOINT newVegas:RightHandRing3
										{
											OFFSET -3.178268 0.000000 0.000000
											CHANNELS 3 Xrotation Yrotation Zrotation
											End Site
											{
												OFFSET -0.119102 3.170624 0.185394
											}
										}
									}
								}
								JOINT newVegas:RightHandPinky1
								{
									OFFSET -15.989624 -0.606689 -7.535461
									CHANNELS 3 Xrotation Yrotation Zrotation
									JOINT newVegas:RightHandPinky2
									{
										OFFSET -2.538986 0.000000 0.000000
										CHANNELS 3 Xrotation Yrotation Zrotation
										JOINT newVegas:RightHandPinky3
										{
											OFFSET -2.593102 0.000000 0.000000
											CHANNELS 3 Xrotation Yrotation Zrotation
											End Site
											{
												OFFSET 0.150902 2.584198 0.152708
											}
										}
									}
								}
							}
							JOINT newVegas:Right_CapeC
							{
								OFFSET -15.715958 -8.608795 -6.935905
								CHANNELS 3 Xrotation Yrotation Zrotation
								JOINT newVegas:Right_CapeC1
								{
									OFFSET 0.000000 -8.688499 0.000000
									CHANNELS 3 Xrotation Yrotation Zrotation
									End Site
									{
										OFFSET 0.000000 8.688499 0.000000
									}
								}
							}
							JOINT newVegas:Right_Sleeve
							{
								OFFSET -0.267448 -0.649994 0.577675
								CHANNELS 3 Xrotation Yrotation Zrotation
								End Site
								{
									OFFSET 0.000000 15.991302 0.000000
								}
							}
						}
						JOINT newVegas:Right_CapeA
						{
							OFFSET -5.115540 -8.608795 -10.395824
							CHANNELS 3 Xrotation Yrotation Zrotation
							JOINT newVegas:Right_CapeA1
							{
								OFFSET 0.000000 -8.688499 0.000000
								CHANNELS 3 Xrotation Yrotation Zrotation
								End Site
								{
									OFFSET 0.000000 8.688499 0.000000
								}
							}
						}
						JOINT newVegas:Right_CapeB
						{
							OFFSET -26.118187 -8.608795 -7.079266
							CHANNELS 3 Xrotation Yrotation Zrotation
							JOINT newVegas:Right_CapeB1
							{
								OFFSET 0.000000 -8.688499 0.000000
								CHANNELS 3 Xrotation Yrotation Zrotation
								End Site
								{
									OFFSET 0.000000 8.688499 0.000000
								}
							}
						}
					}
				}
				JOINT newVegas:Left_Collar
				{
					OFFSET 18.625099 8.655502 8.828100
					CHANNELS 3 Xrotation Yrotation Zrotation
					JOINT newVegas:Left_Collar1
					{
						OFFSET 14.783401 10.540405 -1.259500
						CHANNELS 3 Xrotation Yrotation Zrotation
						End Site
						{
							OFFSET 0.000000 18.199875 0.000000
						}
					}
				}
				JOINT newVegas:Collar_Back
				{
					OFFSET 0.000000 15.630707 -20.132601
					CHANNELS 3 Xrotation Yrotation Zrotation
					End Site
					{
						OFFSET 0.000000 22.523010 0.000000
					}
				}
				JOINT newVegas:Left_Peck
				{
					OFFSET 17.239599 -5.132599 25.482599
					CHANNELS 3 Xrotation Yrotation Zrotation
					End Site
					{
						OFFSET 0.000000 22.523010 0.000000
					}
				}
				JOINT newVegas:Right_Peck
				{
					OFFSET -17.239599 -5.132202 25.482599
					CHANNELS 3 Xrotation Yrotation Zrotation
					End Site
					{
						OFFSET 0.000000 22.523010 0.000000
					}
				}
				JOINT newVegas:Right_Collar
				{
					OFFSET -18.625099 8.655792 8.828100
					CHANNELS 3 Xrotation Yrotation Zrotation
					JOINT newVegas:Right_Collar1
					{
						OFFSET -14.783401 10.539993 -1.259500
						CHANNELS 3 Xrotation Yrotation Zrotation
						End Site
						{
							OFFSET 0.000000 18.199631 0.000000
						}
					}
				}
			}
		}
		JOINT newVegas:Belly
		{
			OFFSET 0.000000 -6.540398 9.014299
			CHANNELS 3 Xrotation Yrotation Zrotation
			End Site
			{
				OFFSET 0.000000 11.566666 0.000000
			}
		}
	}
	JOINT newVegas:ElvisFacialAnim_Joint
	{
		OFFSET 1.000000 -95.330101 -8.825800
		CHANNELS 3 Xrotation Yrotation Zrotation
		End Site
		{
			OFFSET 0.000000 35.315800 0.000000
		}
	}
}
MOTION
Frames: 4
Frame Time: 0.033333
-3.071858 97.079025 1.170323 -5.819337 -13.765355 -1.856849 -0.000000 -0.000000 0.000000 0.207849 15.758747 2.872649 2.497674 -0.025351 -0.017189 2.676290 3.844943 -0.922814 -0.000000 0.000000 0.000000 -0.000000 -0.000000 -0.000000 0.255115 -4.538025 1.502974 10.342240 -0.228729 0.435944 -5.267324 -10.181246 -1.903359 0.000000 -0.000000 0.000000 0.000000 0.000001 -0.000001 2.733015 -1.011993 0.706878 5.485221 -1.996663 1.674029 5.485222 -1.996665 1.674029 -3.006197 0.108393 0.214974 -3.006245 0.108395 0.214993 0.000000 0.000000 0.000000 -3.006066 0.108426 0.214980 -3.006432 0.108283 0.215007 0.000000 0.000001 -0.000000 0.000000 0.000000 -0.000000 12.598527 7.810989 -5.721225 -0.717195 -34.674022 -71.901477 -0.005294 -27.193269 0.000736 -19.387321 11.295051 17.423787 9.600206 12.478482 3.812936 -2.000605 5.419428 0.056561 -0.000000 -0.000002 -0.000005 -0.036639 5.529445 -13.324108 3.507195 1.442670 -24.012645 0.000001 0.000001 -0.000001 1.262687 -1.547632 -11.362321 7.125608 3.684846 -19.965181 0.000000 -0.000000 -0.000000 -4.164506 2.615683 -16.288744 2.399117 -3.927939 -13.527900 -0.000000 -0.000004 -0.000001 -4.199057 -0.212330 -19.693568 -3.456134 -4.007472 -14.582324 0.000000 -0.000002 -0.000001 -0.000002 0.000000 0.000000 -0.000002 0.000000 0.000000 -0.000003 0.000000 0.000000 0.000000 -0.000001 -0.000000 0.000000 0.000000 0.000000 0.000000 -0.000001 -0.000000 -0.000002 0.000000 -0.000001 11.840608 -6.338136 -6.487850 -40.841618 -17.136818 41.948870 -0.406286 75.665444 -0.024394 -21.580343 -4.382809 -30.177784 -21.934092 -0.578948 -6.674705 -2.233189 -5.538227 -0.685066 0.000001 0.000000 0.000001 -0.928026 5.446615 10.446403 3.347863 0.212231 29.227028 -0.000000 0.000001 0.000006 -1.347596 0.895240 20.848621 -1.592976 -0.255302 9.633077 -0.000002 0.000002 0.000003 1.386129 -3.611667 24.647231 -2.227461 3.499488 10.753736 -0.000003 -0.000001 0.000001 -1.288314 -11.199795 25.198304 -5.191949 5.463352 20.221479 -0.000000 -0.000000 0.000002 0.000005 0.000002 0.000001 0.000003 0.000002 0.000003 0.000005 0.000001 -0.000000 -0.000002 0.000000 -0.000002 -0.000002 0.000001 -0.000001 -0.000002 0.000000 -0.000002 -0.000002 0.000001 0.000001 -0.000001 -0.000000 -0.000000 -0.000001 -0.000000 -0.000000 -0.000001 -0.000000 -0.000000 -0.000001 -0.000000 -0.000000 -0.000001 -0.000000 -0.000000 -0.000001 -0.000000 -0.000000 -0.000001 -0.000000 -0.000000 0.000000 0.000001 -0.000000 -0.000000 -0.000000 0.000000 
-3.110226 97.100861 1.152969 -5.882059 -14.071744 -1.865030 0.000001 -0.000000 0.000000 0.933946 16.044601 2.703919 1.366313 -0.010150 -0.002931 3.165557 3.867740 -0.966825 0.000000 0.000000 -0.000000 0.000000 -0.000000 0.000000 0.228064 -4.608405 1.453046 10.338437 -0.219880 0.440218 -5.175394 -9.832664 -1.907211 0.000000 -0.000000 -0.000000 -0.000000 0.000002 -0.000000 2.745528 -0.990595 0.707155 5.510133 -1.954672 1.685811 5.510130 -1.954670 1.685808 -3.012067 0.119060 0.276321 -3.012122 0.119064 0.276336 0.000000 -0.000001 -0.000000 -3.012082 0.119080 0.276329 -3.012271 0.118988 0.276348 0.000000 -0.000000 -0.000000 0.000000 -0.000001 -0.000000 12.592805 7.808567 -5.707100 -0.573715 -34.493623 -71.822014 -0.005860 -27.368425 0.000750 -19.306293 11.333713 17.395775 9.602681 12.495804 3.840248 -2.000608 5.419428 0.056565 -0.000003 -0.000001 -0.000004 -0.020590 5.494772 -13.708080 3.504783 1.391331 -24.145344 -0.000002 0.000000 0.000001 1.187479 -1.517811 -11.782032 7.039406 3.513407 -20.371483 -0.000003 0.000000 -0.000000 -4.163150 2.545450 -16.637668 2.272335 -4.006676 -14.337703 0.000002 -0.000002 -0.000001 -4.242520 -0.233222 -20.077966 -3.474337 -4.055713 -15.451582 0.000000 -0.000003 -0.000001 0.000004 -0.000001 0.000001 0.000004 -0.000001 0.000001 0.000003 -0.000000 0.000001 0.000001 0.000000 -0.000000 0.000001 -0.000001 0.000000 0.000001 0.000000 -0.000000 -0.000001 -0.000001 -0.000001 11.911629 -5.297044 -7.331722 -40.267356 -17.633791 41.509921 -0.416346 70.846342 -0.017276 -19.570722 -4.689726 -30.118552 -21.519479 -0.647694 -6.620359 -2.225412 -5.554198 -0.686973 0.000002 -0.000002 -0.000001 -0.984954 5.265883 10.698007 3.346044 0.215748 29.398654 0.000001 -0.000003 -0.000001 -1.399823 0.824762 21.138315 -1.896905 -0.304781 10.297502 -0.000000 0.000001 0.000002 1.354068 -3.533650 24.928645 -2.260650 3.542347 11.380493 -0.000000 0.000000 0.000004 -1.282009 -11.021930 25.567036 -5.215243 5.540372 20.903965 0.000000 0.000001 0.000002 -0.000001 0.000003 0.000002 -0.000001 -0.000001 0.000001 -0.000001 0.000002 0.000001 0.000001 0.000000 0.000002 0.000001 0.000001 0.000001 0.000001 0.000000 0.000002 0.000001 0.000001 0.000001 -0.000000 0.000000 -0.000000 -0.000000 0.000000 -0.000000 -0.000000 0.000000 -0.000000 -0.000000 0.000000 -0.000000 -0.000000 0.000000 -0.000000 -0.000000 0.000000 -0.000000 -0.000000 0.000000 -0.000000 -0.000000 0.000002 0.000000 0.000001 -0.000000 0.000000 
-3.134441 97.108246 1.129170 -5.952252 -14.267098 -1.872990 -0.000000 0.000000 0.000000 1.069165 16.194481 2.683440 1.313989 -0.000940 0.009037 3.154731 3.899795 -0.994363 -0.000000 0.000000 -0.000000 -0.000000 0.000000 -0.000000 0.182362 -4.674447 1.408924 10.434392 -0.210915 0.444786 -5.157820 -9.592482 -1.911064 -0.000000 0.000002 -0.000000 -0.000001 0.000001 -0.000000 2.762383 -0.976171 0.714519 5.543526 -1.925143 1.694456 5.543526 -1.925146 1.694457 -3.022121 0.127661 0.328011 -3.022118 0.127660 0.328010 0.000000 0.000000 0.000000 -3.022053 0.127664 0.328009 -3.022135 0.127660 0.328011 0.000000 0.000000 0.000000 0.000000 0.000000 0.000001 12.590107 7.816045 -5.693242 -0.460139 -34.487483 -71.743064 -0.006606 -27.625224 0.000807 -19.358493 11.316677 17.386081 9.587852 12.464422 3.832743 -2.000608 5.419429 0.056563 -0.000002 0.000000 -0.000006 -0.003666 5.457899 -14.121094 3.501961 1.336500 -24.288130 0.000001 0.000000 0.000000 1.107394 -1.484694 -12.233500 6.944526 3.330867 -20.809134 -0.000000 0.000001 0.000000 -4.162937 2.469608 -17.012876 2.135243 -4.088531 -15.209127 0.000002 0.000001 -0.000001 -4.289439 -0.255785 -20.491418 -3.494791 -4.107275 -16.386826 -0.000003 -0.000007 0.000001 -0.000001 0.000000 -0.000000 -0.000001 0.000000 -0.000000 -0.000002 0.000001 -0.000000 0.000001 0.000001 -0.000000 0.000001 0.000000 0.000001 0.000001 0.000001 -0.000000 -0.000000 0.000000 -0.000000 11.982784 -3.634061 -8.063106 -39.513669 -17.966241 40.578331 -0.423785 64.569781 -0.012279 -16.772865 -5.253573 -30.493362 -21.073787 -0.720160 -6.560275 -2.217115 -5.571226 -0.688978 0.000000 -0.000003 0.000001 -1.044343 5.070986 10.968334 3.344060 0.219525 29.583294 -0.000002 0.000002 0.000004 -1.454757 0.748420 21.449827 -2.222189 -0.365872 11.011155 0.000001 -0.000001 -0.000002 1.318938 -3.449937 25.231383 -2.296928 3.588071 12.054792 0.000001 0.000001 0.000000 -1.277538 -10.830370 25.963028 -5.241672 5.622868 21.638285 -0.000001 0.000005 0.000001 -0.000003 -0.000002 -0.000002 -0.000001 -0.000002 -0.000002 -0.000003 -0.000002 -0.000002 -0.000001 0.000002 -0.000002 -0.000001 0.000003 -0.000003 -0.000001 0.000002 -0.000002 -0.000001 0.000003 -0.000001 -0.000001 -0.000001 0.000000 -0.000001 -0.000001 0.000000 -0.000001 -0.000001 0.000000 -0.000001 -0.000001 0.000000 -0.000001 -0.000001 0.000000 -0.000001 -0.000001 0.000000 -0.000001 -0.000001 0.000000 0.000000 -0.000002 0.000000 -0.000000 0.000000 0.000000 
-3.146950 97.114288 1.096123 -6.036861 -14.341526 -1.877359 0.000000 -0.000000 -0.000000 1.174654 16.154410 2.654997 1.278550 0.006864 0.016014 3.176557 4.010729 -1.006207 0.000000 -0.000000 -0.000000 -0.000000 -0.000000 -0.000000 0.177629 -4.739612 1.374847 10.528188 -0.204095 0.449142 -5.166132 -9.465433 -1.918719 -0.000000 0.000002 0.000000 -0.000000 -0.000001 0.000000 2.786153 -0.963336 0.722374 5.590850 -1.898716 1.706354 5.590849 -1.898711 1.706352 -3.040035 0.134711 0.367643 -3.040039 0.134706 0.367641 0.000000 -0.000000 0.000000 -3.040101 0.134727 0.367639 -3.039891 0.134691 0.367647 0.000000 -0.000001 0.000000 0.000000 -0.000000 -0.000000 12.589800 7.813754 -5.693542 -0.361512 -34.684688 -71.640563 -0.007571 -27.942915 0.000939 -19.480900 11.237061 17.362655 9.573384 12.438497 3.835551 -2.000603 5.419428 0.056561 0.000000 -0.000001 -0.000006 0.014008 5.419021 -14.561868 3.498714 1.278411 -24.440582 0.000001 -0.000000 -0.000002 1.022894 -1.448174 -12.715277 6.840829 3.138233 -21.276814 -0.000003 -0.000001 0.000002 -4.164104 2.388370 -17.413111 1.988149 -4.172647 -16.139559 0.000001 -0.000001 0.000002 -4.339752 -0.279947 -20.932694 -3.517520 -4.161952 -17.385065 -0.000004 -0.000003 -0.000003 -0.000003 -0.000001 0.000001 -0.000003 -0.000001 0.000001 -0.000004 -0.000001 0.000001 0.000002 0.000001 -0.000000 0.000002 0.000000 0.000000 0.000002 0.000001 -0.000000 0.000000 0.000000 -0.000000 12.036132 -1.614628 -8.493858 -38.321418 -17.711702 39.444069 -0.428873 57.069137 -0.009197 -13.886824 -6.448893 -30.501473 -20.598512 -0.795759 -6.494299 -2.208352 -5.589255 -0.691107 0.000003 -0.000001 0.000001 -1.105650 4.862476 11.256452 3.341903 0.223555 29.780352 0.000001 0.000000 0.000001 -1.511993 0.666413 21.782112 -2.567365 -0.440032 11.771480 0.000005 0.000001 -0.000000 1.280615 -3.360833 25.554437 -2.336236 3.636383 12.774506 -0.000001 -0.000001 -0.000003 -1.275519 -10.625680 26.384894 -5.271465 5.710436 22.422186 0.000001 0.000002 -0.000000 -0.000003 -0.000002 -0.000002 -0.000001 -0.000000 0.000000 -0.000003 -0.000002 -0.000002 0.000000 0.000002 -0.000003 0.000000 0.000003 -0.000003 0.000000 0.000002 -0.000003 0.000000 0.000003 -0.000001 -0.000000 -0.000000 0.000000 -0.000000 -0.000000 0.000000 -0.000000 -0.000000 0.000000 -0.000000 -0.000000 0.000000 -0.000000 -0.000000 0.000000 -0.000000 -0.000000 0.000000 -0.000000 -0.000000 0.000000 0.000000 0.000000 -0.000000 0.000000 -0.000000 -0.000000 
